<?xml version="1.0" standalone="no"?>
<!DOCTYPE svg PUBLIC "-//W3C//DTD SVG 20010904//EN"
 "http://www.w3.org/TR/2001/REC-SVG-20010904/DTD/svg10.dtd">
<svg version="1.0" xmlns="http://www.w3.org/2000/svg"
 width="177.000000pt" height="174.000000pt" viewBox="0 0 177.000000 174.000000"
 preserveAspectRatio="xMidYMid meet">
<metadata>
Created by potrace 1.16, written by Peter Selinger 2001-2019
</metadata>
<g transform="translate(0.000000,174.000000) scale(0.100000,-0.100000)"
fill="#000000" stroke="none">
<path d="M815 1424 c-28 -29 -19 -93 25 -164 43 -70 49 -100 24 -124 -16 -17
-39 -19 -145 -16 -44 1 -69 -3 -76 -12 -18 -23 -22 -60 -10 -82 7 -12 13 -41
14 -66 2 -75 19 -152 35 -164 8 -6 18 -23 22 -38 3 -15 17 -35 31 -44 38 -25
173 -30 269 -10 85 17 136 21 136 8 0 -15 -85 -63 -139 -79 -78 -22 -199 -14
-273 20 -152 68 -249 232 -235 397 3 36 8 74 12 85 l7 20 -14 -20 c-9 -13 -13
-55 -13 -125 1 -133 23 -195 102 -280 59 -64 98 -92 171 -122 l47 -19 -50 5
-50 5 34 -15 c48 -22 147 -28 213 -15 122 26 244 116 297 219 51 100 63 237
29 322 -12 29 -13 23 -10 -62 2 -60 -2 -109 -11 -138 l-14 -45 1 60 c1 85 -8
108 -48 128 -22 10 -49 38 -73 74 -21 31 -58 72 -83 91 -73 54 -136 120 -161
167 -27 51 -42 60 -64 39z"/>
<path d="M220 1383 c0 -21 30 -95 50 -124 32 -44 103 -81 173 -89 34 -4 87
-13 117 -20 31 -7 67 -10 81 -7 36 9 83 47 71 59 -17 17 -117 21 -147 6 -27
-14 -26 -15 31 -12 l59 3 -45 -9 c-25 -5 -55 -12 -67 -15 -18 -4 -21 -2 -17
12 5 17 5 17 -5 1 -10 -15 -16 -12 -54 29 -23 25 -62 59 -87 75 -30 19 -37 27
-20 22 37 -10 74 -30 109 -60 26 -22 31 -23 31 -8 0 28 -81 97 -135 116 -64
23 -145 34 -145 21z"/>
<path d="M210 395 c0 -78 3 -95 15 -95 12 0 15 16 15 80 l0 80 70 0 c56 0 70
3 70 15 0 12 -16 15 -85 15 l-85 0 0 -95z"/>
<path d="M439 461 c-26 -27 -29 -36 -29 -95 0 -52 3 -66 15 -66 9 0 15 9 15
25 0 24 2 25 65 25 63 0 65 -1 65 -25 0 -16 6 -25 15 -25 12 0 15 17 15 95 l0
95 -66 0 c-59 0 -68 -3 -95 -29z m131 -41 l0 -40 -65 0 c-71 0 -82 12 -49 58
12 18 25 22 65 22 l49 0 0 -40z"/>
<path d="M650 395 c0 -78 3 -95 15 -95 12 0 15 16 15 80 l0 80 70 0 c56 0 70
3 70 15 0 12 -16 15 -85 15 l-85 0 0 -95z"/>
<path d="M850 395 c0 -78 3 -95 15 -95 12 0 15 17 15 95 0 78 -3 95 -15 95
-12 0 -15 -17 -15 -95z"/>
<path d="M932 398 l3 -93 78 -3 c50 -2 84 1 93 9 17 14 19 65 3 75 -6 4 -9 19
-5 36 11 56 -5 68 -95 68 l-80 0 3 -92z m141 56 c3 -4 2 -15 -4 -25 -7 -14
-21 -19 -49 -19 -28 0 -40 -4 -40 -14 0 -11 15 -16 53 -18 45 -3 52 -6 55 -25
3 -22 0 -23 -62 -23 l-66 0 0 65 0 65 53 0 c30 0 57 -3 60 -6z"/>
<path d="M1166 474 c-21 -20 -20 -58 1 -75 9 -8 43 -16 77 -19 53 -4 61 -8 61
-25 0 -18 -8 -20 -77 -23 -60 -2 -78 -6 -78 -17 0 -12 16 -15 73 -15 81 0 117
16 117 53 0 42 -16 52 -87 57 -60 4 -68 7 -68 25 0 18 8 20 68 23 51 2 67 6
67 17 0 22 -133 21 -154 -1z"/>
<path d="M1382 428 c-18 -18 -15 -94 4 -112 21 -22 124 -23 124 -2 0 11 -15
16 -52 18 l-53 3 -3 38 -3 37 55 0 c43 0 56 3 56 15 0 12 -13 15 -58 15 -32 0
-63 -5 -70 -12z"/>
<path d="M260 395 c0 -12 13 -15 55 -15 42 0 55 3 55 15 0 12 -13 15 -55 15
-42 0 -55 -3 -55 -15z"/>
<path d="M700 395 c0 -11 12 -15 50 -15 38 0 50 4 50 15 0 11 -12 15 -50 15
-38 0 -50 -4 -50 -15z"/>
</g>
</svg>
